# xmcd
#
# Track frame offsets: 
#        150
#        22597
#        41365
#        55081
#        76591
#        96241
#        109312
#        126989
#        146188
#        155419
#        165803
#        176851
#        187002
#        198082
#        205738
#        215720
#        228140
#        240965
#        249200
#        259388
#
# Disc length: 3629 seconds
#
# Revision: 1
# Processed by: cddbd v1.5.2PL0 Copyright (c) Steve Scherf et al.
# Submitted via: ExactAudioCopyFreeDBPlugin 1.0
#
DISCID=030e2b14
DTITLE=Johnny Cash - The Man in Black  [Kingsland]  '15 Disc 2 - Railr
DTITLE=oad Tracks
DYEAR=2015
DGENRE=Country
TTITLE0=Loading Coal
TTITLE1=Slow Rider
TTITLE2=Lumberjack
TTITLE3=Dorraine of Ponchartrain
TTITLE4=Going to Memphis
TTITLE5=When Papa Played the Dobro
TTITLE6=Boss Jack
TTITLE7=Old Doc Brown
TTITLE8=Blue Train
TTITLE9=There you go
TTITLE10=Train of Love
TTITLE11=Goodbye Little Darlin', Goodbye
TTITLE12=(I Heard That) Lonesome Whistle
TTITLE13=Come in stranger
TTITLE14=Rock Island Line
TTITLE15=Give My Love to Rose
TTITLE16=Folsom Prison Blues
TTITLE17=The Wreck of the Old '97
TTITLE18=Hey Porter
TTITLE19=Locomotive Man
EXTD=
EXTT0=
EXTT1=
EXTT2=
EXTT3=
EXTT4=
EXTT5=
EXTT6=
EXTT7=
EXTT8=
EXTT9=
EXTT10=
EXTT11=
EXTT12=
EXTT13=
EXTT14=
EXTT15=
EXTT16=
EXTT17=
EXTT18=
EXTT19=
PLAYORDER=
